# xmcd
#
# Track frame offsets: 
#        150
#        8551
#        29626
#        51713
#        87713
#        105713
#        147113
#        159338
#        171901
#        186463
#        207813
#        236651
#        259888
#        279926
#        339811
#
# Disc length: 4799 seconds
#
# Revision: 0
# Processed by: cddbd v1.4PL0 Copyright (c) Steve Scherf et al.
# Submitted via: ExactAudioCopy v0.90b4
#
DISCID=d712bd0f
DTITLE=Stevie Ray Vaughan - Could't Stand The Weather and Live At Monteu
DTITLE=x' 85
DYEAR=1900
DGENRE=Blues
TTITLE0=Scuttle Buttin'
TTITLE1=Couldn't Stand The Weather
TTITLE2=The Things (That) I Used To Do
TTITLE3=Voodoo Chile (Slight Return)
TTITLE4=Cold Shot
TTITLE5=Tin Pan Alley
TTITLE6=Honey Bee
TTITLE7=Stang's Swang
TTITLE8=Scuttle Buttin'
TTITLE9=Say What!
TTITLE10=Ain't Gone N' Give Up On Love
TTITLE11=Pride And Joy
TTITLE12=Mary Had A Little Lamb
TTITLE13=Tin Pan Alley
TTITLE14=Voodoo Child
EXTD=
EXTT0=
EXTT1=
EXTT2=
EXTT3=
EXTT4=
EXTT5=
EXTT6=
EXTT7=
EXTT8=
EXTT9=
EXTT10=
EXTT11=
EXTT12=
EXTT13=
EXTT14=
PLAYORDER=
